<svg width="33" height="33" viewBox="0 0 33 33" fill="none" xmlns="http://www.w3.org/2000/svg">
<g filter="url(#filter0_d_1274_412)">
<circle cx="16.5" cy="12.5" r="11.5" stroke="#EACC18" stroke-width="2"/>
<path d="M14.9476 15.0633C14.9476 14.4647 15.0331 13.9271 15.2042 13.4507C15.2897 13.2308 15.3752 13.0292 15.4607 12.8459C15.5585 12.6627 15.6684 12.5039 15.7906 12.3695C15.9127 12.2351 16.0471 12.0946 16.1937 11.948C16.3403 11.7892 16.5053 11.6242 16.6885 11.4532C16.8718 11.2822 17.0306 11.1295 17.165 10.9951C17.2994 10.8485 17.4093 10.7141 17.4948 10.5919C17.6536 10.3598 17.7331 10.0788 17.7331 9.74896C17.7331 9.28472 17.6048 8.92432 17.3482 8.66777C17.0672 8.42343 16.7068 8.30126 16.267 8.30126C15.7906 8.30126 15.4057 8.4723 15.1125 8.81437C14.8071 9.15644 14.6544 9.56571 14.6544 10.0422V10.1704H12.0889V10.0422C12.0889 9.29694 12.266 8.60058 12.6203 7.95308C12.9624 7.31781 13.451 6.81081 14.0863 6.43208C14.7338 6.06558 15.4607 5.88232 16.267 5.88232C17.11 5.88232 17.8369 6.03504 18.4477 6.34046C19.0708 6.6581 19.5412 7.08569 19.8588 7.62323C20.1886 8.17299 20.3536 8.80215 20.3536 9.51073C20.3536 9.98719 20.2803 10.4026 20.1337 10.7569C19.9871 11.1111 19.8099 11.4105 19.6022 11.6548C19.5045 11.777 19.3823 11.9113 19.2357 12.0579C19.1013 12.1923 18.9486 12.3389 18.7776 12.4978C18.3134 12.9376 17.9591 13.3407 17.7147 13.7072C17.4826 14.0493 17.3666 14.5013 17.3666 15.0633V15.2099H14.9476V15.0633ZM15.1125 18.765C14.8316 18.484 14.6911 18.1358 14.6911 17.7205C14.6911 17.3051 14.8316 16.9569 15.1125 16.6759C15.3935 16.3949 15.7417 16.2544 16.1571 16.2544C16.5725 16.2544 16.9206 16.3949 17.2016 16.6759C17.4826 16.9569 17.6231 17.3051 17.6231 17.7205C17.6231 18.1358 17.4826 18.484 17.2016 18.765C16.9206 19.046 16.5725 19.1865 16.1571 19.1865C15.7417 19.1865 15.3935 19.046 15.1125 18.765Z" fill="#EACC18"/>
</g>
<defs>
<filter id="filter0_d_1274_412" x="0" y="0" width="33" height="33" filterUnits="userSpaceOnUse" color-interpolation-filters="sRGB">
<feFlood flood-opacity="0" result="BackgroundImageFix"/>
<feColorMatrix in="SourceAlpha" type="matrix" values="0 0 0 0 0 0 0 0 0 0 0 0 0 0 0 0 0 0 127 0" result="hardAlpha"/>
<feOffset dy="4"/>
<feGaussianBlur stdDeviation="2"/>
<feComposite in2="hardAlpha" operator="out"/>
<feColorMatrix type="matrix" values="0 0 0 0 0 0 0 0 0 0 0 0 0 0 0 0 0 0 0.25 0"/>
<feBlend mode="normal" in2="BackgroundImageFix" result="effect1_dropShadow_1274_412"/>
<feBlend mode="normal" in="SourceGraphic" in2="effect1_dropShadow_1274_412" result="shape"/>
</filter>
</defs>
</svg>
