<svg width="30" height="30" viewBox="0 0 30 30" fill="none" xmlns="http://www.w3.org/2000/svg">
<path d="M23.125 15C23.125 14.1712 23.4542 13.3763 24.0403 12.7903C24.6263 12.2042 25.4212 11.875 26.25 11.875V8.75C26.25 8.41848 26.1183 8.10054 25.8839 7.86612C25.6495 7.6317 25.3315 7.5 25 7.5H5C4.66848 7.5 4.35054 7.6317 4.11612 7.86612C3.8817 8.10054 3.75 8.41848 3.75 8.75V11.875C4.5788 11.875 5.37366 12.2042 5.95971 12.7903C6.54576 13.3763 6.875 14.1712 6.875 15C6.875 15.8288 6.54576 16.6237 5.95971 17.2097C5.37366 17.7958 4.5788 18.125 3.75 18.125V21.25C3.75 21.5815 3.8817 21.8995 4.11612 22.1339C4.35054 22.3683 4.66848 22.5 5 22.5H25C25.3315 22.5 25.6495 22.3683 25.8839 22.1339C26.1183 21.8995 26.25 21.5815 26.25 21.25V18.125C25.4212 18.125 24.6263 17.7958 24.0403 17.2097C23.4542 16.6237 23.125 15.8288 23.125 15Z" stroke="#EACC18" stroke-width="3" stroke-linecap="round" stroke-linejoin="round"/>
</svg>
